<svg width="56" height="63" fill="none" xmlns="http://www.w3.org/2000/svg"><path d="M28.022.93L.734 8.69v16.1c0 8.443 2.599 16.518 7.514 23.35 4.81 6.686 11.44 11.665 19.17 14.398l.604.213.604-.213c7.731-2.733 14.36-7.712 19.17-14.398 4.916-6.833 7.514-14.907 7.514-23.35V8.69L28.022.93zm0 50.102a29.269 29.269 0 01-10.953-9.238A28.884 28.884 0 0111.79 28.14l16.231-4.615 16.231 4.616a28.88 28.88 0 01-5.278 13.652 29.266 29.266 0 01-10.953 9.238zM44.443 24.43l-16.42-4.67L11.6 24.43v-7.532l16.421-4.67 16.421 4.67v7.532zm-40.086.36V11.426L26.21 5.212v3.765L7.98 14.162V24.79c0 6.915 2.126 13.527 6.15 19.12a32.901 32.901 0 0012.08 10.267v3.992C13.04 52.425 4.357 39.323 4.357 24.79zm47.33 0c0 14.534-8.681 27.636-21.854 33.38v-3.992a32.902 32.902 0 0012.083-10.269c4.023-5.592 6.15-12.204 6.15-19.12V14.163L29.832 8.977V5.212l21.855 6.214V24.79z" fill="#000"/></svg>