<svg width="63" height="63" fill="none" xmlns="http://www.w3.org/2000/svg"><path d="M57.735 35.848V.488H5.815v35.36L.866 52.873v9.314h61.82v-9.314l-4.95-17.025zM9.438 4.11h44.675v30.185H9.438V4.11zm-.452 33.807h45.578l3.898 13.403H5.089l3.897-13.403zm50.077 20.648H4.488v-3.623h54.575v3.623z" fill="#000"/><path d="M35.398 45.886h-7.245v3.622h7.245v-3.622zm4.655-34.278c-4.564-4.546-11.991-4.546-16.555 0l-6.815 6.787v1.615l6.814 6.786a11.693 11.693 0 008.279 3.41c2.997 0 5.995-1.137 8.277-3.41l6.815-6.786v-1.616l-6.815-6.786zM37.497 24.23c-3.155 3.142-8.288 3.142-11.443 0l-5.049-5.028 5.049-5.028c3.155-3.141 8.288-3.141 11.443 0l5.049 5.028-5.049 5.028z" fill="#000"/><path d="M31.775 16.183a3.022 3.022 0 00-3.018 3.019 3.022 3.022 0 003.018 3.018 3.022 3.022 0 003.019-3.018 3.022 3.022 0 00-3.019-3.019z" fill="#000"/></svg>