<svg width="56" height="63" fill="none" xmlns="http://www.w3.org/2000/svg"><path d="M6.289 44.015h5.433v3.622h3.623V22.281h-3.623v3.623H8.1v-1.812C8.1 13.04 17.037 4.05 28.023 4.05c10.985 0 19.922 8.991 19.922 20.043v1.812h-3.622V22.28H40.7v25.356h3.622v-3.622h3.622v5.554a5.44 5.44 0 01-5.433 5.433h-9.367a5.442 5.442 0 00-5.122-3.622 5.44 5.44 0 00-5.434 5.434 5.44 5.44 0 005.434 5.433 5.442 5.442 0 005.122-3.622h9.367c4.993 0 9.055-4.063 9.055-9.056v-5.866a5.442 5.442 0 003.623-5.122v-7.244a5.442 5.442 0 00-3.623-5.122v-2.123C51.567 11.043 41.005.427 28.023.427 15.04.427 4.478 11.043 4.478 24.092v2.123a5.442 5.442 0 00-3.623 5.122v7.245a5.44 5.44 0 005.434 5.433zm21.734 14.61a1.813 1.813 0 01-1.812-1.811c0-1 .813-1.812 1.812-1.812a1.812 1.812 0 010 3.622zm23.544-27.288v7.244c0 1-.812 1.812-1.81 1.812h-5.434V29.526h5.433c.999 0 1.811.812 1.811 1.81zm-47.09 0c0-.999.813-1.811 1.812-1.811h5.433v10.867H6.29a1.813 1.813 0 01-1.811-1.812v-7.244z" fill="#000"/></svg>