<svg width="62" height="59" fill="none" xmlns="http://www.w3.org/2000/svg"><path d="M0 .34v50.743h19.842v3.628h-3.627v3.623h29.39V54.71h-3.627v-3.628H61.82V.34H0zm38.356 54.37H23.464v-3.628h14.892v3.628zm19.842-7.25H3.622v-7.254h16.426a18.027 18.027 0 0010.862 3.625 18.03 18.03 0 0010.862-3.625h16.426v7.254zM16.412 25.71c0-7.994 6.504-14.498 14.498-14.498s14.498 6.504 14.498 14.499c0 7.994-6.504 14.498-14.498 14.498s-14.498-6.504-14.498-14.498zm41.786 10.874h-12.8a18.026 18.026 0 003.633-10.873c0-9.992-8.129-18.121-18.12-18.121-9.993 0-18.122 8.129-18.122 18.12 0 4.077 1.354 7.843 3.634 10.874h-12.8V3.962h54.575v32.623z" fill="#000"/><path d="M41.9 27.523V23.9h-3.238a7.917 7.917 0 00-.992-2.388l2.291-2.291-2.561-2.562-2.291 2.291a7.913 7.913 0 00-2.389-.991V14.72h-3.622v3.238c-.857.2-1.662.538-2.389.991l-2.29-2.29-2.562 2.56 2.291 2.292a7.918 7.918 0 00-.991 2.388h-3.238v3.623h3.238c.2.857.538 1.661.991 2.388l-2.291 2.29 2.561 2.562 2.291-2.29a7.913 7.913 0 002.389.99V36.7h3.622v-3.237a7.917 7.917 0 002.389-.992l2.29 2.291 2.562-2.561-2.29-2.291a7.918 7.918 0 00.99-2.389H41.9zm-10.99 2.529a4.345 4.345 0 01-4.341-4.34 4.345 4.345 0 014.34-4.341 4.345 4.345 0 014.34 4.34 4.345 4.345 0 01-4.34 4.34z" fill="#000"/></svg>