<svg width="48" height="63" viewBox="0 0 48 63" fill="none" xmlns="http://www.w3.org/2000/svg">
<path d="M47.2252 12.4221L35.3207 0.517578H0.227539V62.2171H47.2252V12.4221ZM36.3796 6.6891L41.0537 11.3632H36.3796V6.6891ZM43.61 58.6019H3.84274V4.13278H32.7644V14.9784H43.61V58.6019Z" fill="black"/>
<path d="M21.918 22.3291H39.994V25.9443H21.918V22.3291Z" fill="black"/>
<path d="M21.918 33.1748H39.994V36.79H21.918V33.1748Z" fill="black"/>
<path d="M21.918 44.0205H39.994V47.6357H21.918V44.0205Z" fill="black"/>
<path d="M12.8796 21.5801L10.5425 19.2432L7.98633 21.7993L12.8796 26.6928L19.5805 19.9917L17.0243 17.4355L12.8796 21.5801Z" fill="black"/>
<path d="M12.8796 32.4258L10.5425 30.0889L7.98633 32.645L12.8796 37.5385L19.5805 30.8374L17.0243 28.2812L12.8796 32.4258Z" fill="black"/>
<path d="M12.8796 43.2715L10.5425 40.9346L7.98633 43.4907L12.8796 48.3842L19.5805 41.6831L17.0243 39.127L12.8796 43.2715Z" fill="black"/>
</svg>
