<svg width="69" height="68" viewBox="0 0 69 68" fill="none" xmlns="http://www.w3.org/2000/svg">
<path fill-rule="evenodd" clip-rule="evenodd" d="M61.1859 37.0278C60.8029 40.5092 59.738 43.881 58.0519 46.9509C56.3657 50.0207 54.0915 52.7283 51.359 54.9192C48.6264 57.1101 45.4891 58.7414 42.1262 59.7198C38.7632 60.6982 35.2405 61.0047 31.7591 60.6217C28.2777 60.2387 24.9058 59.1737 21.836 57.4876C18.7662 55.8015 16.0585 53.5272 13.8676 50.7947C12.2186 48.738 10.8867 46.452 9.91149 44.0131L13.8036 43.0633L5.63519 34.5197L2.32047 45.8656L5.99171 44.9697C7.12858 47.9729 8.7319 50.7837 10.7469 53.2968C13.2664 56.4392 16.3801 59.0546 19.9103 60.9935C23.4406 62.9325 27.3181 64.1572 31.3217 64.5977C35.3252 65.0381 39.3763 64.6857 43.2436 63.5605C47.1109 62.4354 50.7188 60.5595 53.8611 58.04C57.0035 55.5205 59.6188 52.4068 61.5578 48.8765C63.4968 45.3463 64.7215 41.4687 65.1619 37.4652L61.1859 37.0278ZM11.0108 21.3785C9.35394 24.4642 8.32114 27.8461 7.9713 31.331L3.9913 30.9314C4.3936 26.9239 5.58131 23.0348 7.48661 19.4863C9.39191 15.9378 11.9775 12.7993 15.0957 10.25C18.2139 7.70068 21.8038 5.79054 25.6602 4.6286C29.5166 3.46665 33.5642 3.07567 37.5717 3.47798C41.5793 3.88028 45.4683 5.06798 49.0168 6.97328C52.5654 8.87858 55.7039 11.4642 58.2532 14.5824C60.2918 17.076 61.9217 19.8711 63.0871 22.8631L66.7491 21.9324L63.5426 33.3093L55.2932 24.8439L59.1766 23.8569C58.1782 21.4277 56.8247 19.1548 55.1564 17.1142C52.9396 14.4026 50.2104 12.1542 47.1246 10.4974C44.0389 8.84061 40.6571 7.8078 37.1722 7.45797C33.6873 7.10814 30.1676 7.44813 26.8142 8.45853C23.4607 9.46893 20.339 11.13 17.6275 13.3468C14.9159 15.5636 12.6676 18.2928 11.0108 21.3785Z" fill="black"/>
</svg>
