<svg width="63" height="63" viewBox="0 0 63 63" fill="none" xmlns="http://www.w3.org/2000/svg">
<path d="M11.4229 11.3623H15.0378V14.9773H11.4229V11.3623Z" fill="black"/>
<path d="M18.6523 11.3623H22.2673V14.9773H18.6523V11.3623Z" fill="black"/>
<path d="M25.8818 11.3623H29.4968V14.9773H25.8818V11.3623Z" fill="black"/>
<path d="M0.577148 32.3622V0.517578H40.3421V25.8225H13.6563L0.577148 32.3622ZM4.19214 4.13257V26.5129L12.8029 22.2075H36.7271V4.13257H4.19214Z" fill="black"/>
<path d="M47.8135 41.3667H51.4285V44.9817H47.8135V41.3667Z" fill="black"/>
<path d="M40.583 41.3667H44.198V44.9817H40.583V41.3667Z" fill="black"/>
<path d="M33.3535 41.3667H36.9685V44.9817H33.3535V41.3667Z" fill="black"/>
<path d="M62.2737 62.217L49.203 55.8269H22.5088V30.522H62.2737V62.217ZM26.1238 52.2119H50.0395L58.6587 56.4258V34.137H26.1238V52.2119Z" fill="black"/>
</svg>
