<svg width="44" height="31" fill="none" xmlns="http://www.w3.org/2000/svg"><path d="M43.768.655H.738v15.128h3.01a3.787 3.787 0 00.337 4.962 3.766 3.766 0 002.465 1.1c.05.898.416 1.781 1.1 2.466a3.768 3.768 0 002.466 1.1 3.783 3.783 0 005.652 3.076 3.786 3.786 0 006.145 1.172l.34-.34.015.014a3.76 3.76 0 005.304 0l.037-.037c.312-.31.562-.666.744-1.052a3.787 3.787 0 004.92-.368 3.753 3.753 0 001.103-2.466 3.766 3.766 0 002.464-1.1 3.765 3.765 0 001.1-2.463 3.753 3.753 0 002.465-1.102 3.78 3.78 0 00.337-4.962h3.026V.655zm-37.9 18.307a1.262 1.262 0 010-1.783l1.396-1.396h1.444l1.064 1.058-2.122 2.121a1.26 1.26 0 01-1.782 0zm3.565 3.566a1.262 1.262 0 010-1.783l2.124-2.124 1.782 1.783-2.123 2.124a1.262 1.262 0 01-1.783 0zm5.349 3.565a1.26 1.26 0 11-1.783-1.782l2.123-2.124 1.783 1.783-2.123 2.123zm5.348 1.783a1.262 1.262 0 01-1.783 0 1.262 1.262 0 01-.003-1.78l.344-.343 1.783 1.782-.34.341zm18.493-8.914a1.26 1.26 0 01-1.783 0l-6.915-6.915-1.783 1.783 6.915 6.915a1.262 1.262 0 010 1.783 1.262 1.262 0 01-1.783 0l-6.915-6.915-1.783 1.782 6.915 6.916a1.26 1.26 0 11-1.783 1.783l-6.914-6.916-1.783 1.783 4.814 4.815c.486.486.481 1.26.006 1.733l-.038.039a1.234 1.234 0 01-1.742.002c-6.596-6.59-7.764-7.78-14.305-14.288H3.26V3.177h10.956L8.542 8.85l2.674 2.674a3.78 3.78 0 005.349 0l3.071-3.071a10.816 10.816 0 0011.13.87l7.857 7.855a1.26 1.26 0 010 1.783zm2.624-5.7H38.27l-7.106-7.107-.85.532c-3.112 1.946-7.195 1.592-9.93-.862l-.888-.797-4.714 4.714a1.26 1.26 0 01-1.783 0l-.892-.891 5.675-5.674h23.465v10.085z" fill="#D4AF5E"/></svg>