<svg width="44" height="44" fill="none" xmlns="http://www.w3.org/2000/svg"><path d="M29.021 20.297l.255-.255 5.299 1.188 8.452-8.452-3.547-7.094-6.712 6.712-1.585-.356-.355-1.584 6.712-6.712L30.445.196l-8.452 8.452 1.188 5.3-2.039 2.038L5.354.198H.004v5.35l15.788 15.788L0 37.13l6.095 6.094 14.008-14.008 14.009 14.009 8.918-8.918-14.01-14.01zm-3.077-5.548L24.756 9.45l6.187-6.186 2.341 1.17-5.22 5.22 1.009 4.496 4.497 1.009 5.22-5.22 1.17 2.342-6.187 6.186-5.299-1.188-3.02 3.02-2.529-2.53 3.02-3.02zM2.524 4.504V2.719H4.31L23.672 22.08l-1.785 1.785L2.525 4.504zm3.57 35.154l-2.53-2.53 14.01-14.01 2.53 2.53-14.01 14.01zm15.791-12.225l5.354-5.353 12.226 12.226-5.353 5.353-12.227-12.226z" fill="#D4AF5E"/></svg>