<svg width="35" height="44" fill="none" xmlns="http://www.w3.org/2000/svg"><path d="M17.169 22.966a6.31 6.31 0 006.302-6.302 6.309 6.309 0 00-6.302-6.302 6.31 6.31 0 00-6.302 6.302 6.31 6.31 0 006.302 6.302zm0-10.083a3.785 3.785 0 013.781 3.781 3.785 3.785 0 01-3.781 3.781 3.785 3.785 0 01-3.781-3.78 3.785 3.785 0 013.78-3.782z" fill="#D4AF5E"/><path d="M3.835 20.238l-1.308 4.88 4.88 1.308.863 3.219-4.85 8.713 6.045-.5 2.775 5.367 4.929-8.777 4.928 8.777 2.776-5.367 6.045.5-4.85-8.713.862-3.219 4.88-1.308-1.307-4.88 3.573-3.573-3.576-3.576 1.305-4.963L26.93 6.82 25.585 1.8l-4.91 1.902L17.17.195l-3.507 3.507L8.752 1.8 7.407 6.82 2.533 8.126l1.304 4.963-3.575 3.576 3.573 3.573zm8.496 17.676l-1.399-2.707-3.012.25 2.576-4.627 3.09-.828 2.022 2.076-3.277 5.836zm14.087-2.458l-3.012-.249-1.4 2.707-3.277-5.836 2.023-2.076 3.09.828 2.576 4.626zM5.608 9.911l3.858-1.033.995-3.713 3.822 1.48L17.17 3.76l2.885 2.885 3.823-1.48.995 3.713 3.857 1.033-1.035 3.937 2.817 2.817-2.82 2.82 1.032 3.85-3.851 1.033-1.032 3.852-3.862-1.035-2.81 2.882-2.808-2.882-3.862 1.035-1.032-3.852-3.852-1.032 1.032-3.852-2.82-2.82 2.817-2.816-1.035-3.937z" fill="#D4AF5E"/></svg>