<svg width="31" height="44" fill="none" xmlns="http://www.w3.org/2000/svg"><path d="M15.476.195C6.973.195.056 7.113.056 15.617c0 2.734.726 5.421 2.098 7.77a15.515 15.515 0 004.891 5.142v9.345h2.3a6.199 6.199 0 006.133 5.35c3.128 0 5.72-2.332 6.132-5.35h2.3v-9.345c2-1.31 3.682-3.074 4.89-5.142a15.412 15.412 0 002.1-7.77C30.898 7.113 23.98.195 15.475.195zm6.533 26.547l-.622.366v3.202H9.566v-3.202l-.622-.366a12.985 12.985 0 01-4.614-4.627 12.888 12.888 0 01-1.754-6.498c0-7.114 5.787-12.9 12.9-12.9 7.114 0 12.901 5.786 12.901 12.9a12.89 12.89 0 01-1.754 6.498 12.982 12.982 0 01-4.614 4.627zm-.622 8.61H9.566v-2.52h11.822v2.52zm-5.91 5.351a3.675 3.675 0 01-3.572-2.83h7.143a3.675 3.675 0 01-3.571 2.83z" fill="#D4AF5E"/><path d="M21.62 11.256l1.404-1.404-1.783-1.783-1.404 1.404a7.497 7.497 0 00-3.1-1.287V6.204h-2.521v1.982a7.496 7.496 0 00-3.1 1.287L9.712 8.07 7.93 9.852l1.405 1.404a7.501 7.501 0 00-1.287 3.1H6.064v2.521h1.983a7.501 7.501 0 001.287 3.1L7.929 21.38l1.783 1.783 1.404-1.405a7.5 7.5 0 003.1 1.287v1.983h2.521v-1.983a7.5 7.5 0 003.1-1.287l1.404 1.404 1.783-1.782-1.404-1.404a7.496 7.496 0 001.286-3.1h1.983v-2.521h-1.982a7.5 7.5 0 00-1.287-3.1zm-6.143 9.375a5.02 5.02 0 01-5.015-5.015 5.02 5.02 0 015.015-5.014 5.02 5.02 0 015.014 5.014 5.02 5.02 0 01-5.014 5.015z" fill="#D4AF5E"/><path d="M14.216 14.356h2.521v2.521h-2.521v-2.521z" fill="#D4AF5E"/></svg>