<svg width="62" height="60" fill="none" xmlns="http://www.w3.org/2000/svg"><path d="M56.646 18.878l1.532-1.872a5.56 5.56 0 001.238-4.101A5.561 5.561 0 0057.39 9.13a5.558 5.558 0 00-4.101-1.238 5.56 5.56 0 00-3.776 2.024l-1.495 1.828a24.815 24.815 0 00-3.586-1.466V4.223h3.34V.6H25.88v3.622h3.34v6.055c-1.24.397-2.437.888-3.585 1.466L24.14 9.916a5.561 5.561 0 00-3.776-2.024 5.56 5.56 0 00-4.1 1.237 5.561 5.561 0 00-2.026 3.776 5.561 5.561 0 001.238 4.101l1.532 1.872a24.914 24.914 0 00-4.43 9.151H6.44v3.623h5.512a25.193 25.193 0 00-.062 4.105H0v3.622h12.399a24.768 24.768 0 001.27 4.105h-7.23v3.623H15.5c4.397 7.175 12.312 11.973 21.327 11.973 13.781 0 24.993-11.212 24.993-24.993a24.866 24.866 0 00-5.174-15.21zm-41.19 15.209c0-11.785 9.586-21.372 21.37-21.372 11.785 0 21.372 9.587 21.372 21.372 0 11.784-9.587 21.371-21.371 21.371-11.785 0-21.372-9.587-21.372-21.371zM40.81 4.223v5.189a25.076 25.076 0 00-7.969 0v-5.19h7.969zm11.507 7.987a1.962 1.962 0 011.332-.714 1.977 1.977 0 011.725 3.216l-1.17 1.43a25.174 25.174 0 00-3.044-2.518l1.157-1.414zm-34.476 1.055a1.96 1.96 0 01.714-1.332c.409-.334.923-.49 1.447-.437a1.96 1.96 0 011.332.714l1.157 1.414a25.198 25.198 0 00-3.044 2.517l-1.17-1.43a1.96 1.96 0 01-.436-1.446z" fill="#000"/></svg>