<svg width="62" height="59" fill="none" xmlns="http://www.w3.org/2000/svg"><path d="M0 .34v50.743h19.842v3.628h-3.627v3.623h29.39V54.71h-3.627v-3.628H61.82V.34H0zm38.356 54.37H23.464v-3.628h14.892v3.628zm19.842-7.25H3.622v-7.254h16.426a18.027 18.027 0 0010.862 3.625 18.03 18.03 0 0010.862-3.625h16.426v7.254zM16.412 25.71c0-7.994 6.504-14.498 14.498-14.498s14.498 6.504 14.498 14.499c0 7.994-6.504 14.498-14.498 14.498s-14.498-6.504-14.498-14.498zm41.786 10.874h-12.8a18.026 18.026 0 003.633-10.873c0-9.992-8.129-18.121-18.12-18.121-9.993 0-18.122 8.129-18.122 18.12 0 4.077 1.354 7.843 3.634 10.874h-12.8V3.962h54.575v32.623z" fill="#000"/></svg>