<svg width="34" height="44" fill="none" xmlns="http://www.w3.org/2000/svg"><path d="M16.907 23.503A6.309 6.309 0 0023.21 17.2a6.31 6.31 0 00-6.302-6.302 6.31 6.31 0 00-6.302 6.302 6.309 6.309 0 006.302 6.302zm0-10.083a3.785 3.785 0 013.781 3.78 3.785 3.785 0 01-3.78 3.782 3.785 3.785 0 01-3.782-3.781 3.785 3.785 0 013.781-3.781z" fill="#D4AF5E"/><path d="M3.573 20.774l-1.308 4.881 4.88 1.308.863 3.219-4.85 8.712 6.045-.5 2.775 5.367 4.929-8.777 4.929 8.777 2.775-5.367 6.045.5-4.85-8.712.862-3.22 4.88-1.307-1.307-4.88 3.573-3.573-3.576-3.576 1.305-4.964-4.875-1.306-1.345-5.02-4.91 1.902L16.908.731 13.4 4.238 8.49 2.337l-1.344 5.02L2.27 8.661l1.305 4.964L0 17.2l3.573 3.573zM12.07 38.45l-1.4-2.706-3.012.249 2.576-4.627 3.09-.828 2.023 2.077-3.277 5.835zm14.086-2.457l-3.012-.25-1.4 2.707-3.277-5.835 2.023-2.077 3.09.828 2.576 4.627zM5.346 10.448l3.858-1.034.995-3.713 3.822 1.48 2.886-2.885 2.886 2.886 3.822-1.48.995 3.712 3.857 1.034-1.035 3.937L30.25 17.2l-2.82 2.82 1.033 3.851-3.852 1.032-1.032 3.852-3.862-1.035-2.81 2.883-2.808-2.883-3.862 1.035-1.032-3.852-3.852-1.032 1.032-3.851-2.82-2.82 2.818-2.816-1.035-3.937z" fill="#D4AF5E"/></svg>