<svg width="26" height="26" fill="none" xmlns="http://www.w3.org/2000/svg"><path fill-rule="evenodd" clip-rule="evenodd" d="M15.43 12.554a2.38 2.38 0 01-2.874 2.287 2.381 2.381 0 01.493-4.713 2.415 2.415 0 012.381 2.426zm3.19-4.265a2.208 2.208 0 00-.535-.809 1.903 1.903 0 00-.822-.514 3.944 3.944 0 00-1.327-.221 24.635 24.635 0 00-2.887-.074 24.64 24.64 0 00-2.889.074 3.934 3.934 0 00-1.323.22 1.902 1.902 0 00-.822.515 2.22 2.22 0 00-.535.81c-.155.45-.238.92-.246 1.396-.035.735-.042.956-.042 2.868s.007 2.132.042 2.868c.008.475.091.947.246 1.396.117.306.3.583.535.81.225.24.507.416.821.514a3.92 3.92 0 001.327.22c.96.082 1.925.106 2.888.074.963.032 1.928.008 2.888-.073.452.003.9-.072 1.327-.221a2.352 2.352 0 001.356-1.324c.155-.45.238-.92.246-1.396.035-.736.042-.957.042-2.868 0-1.912-.007-2.133-.042-2.868a4.499 4.499 0 00-.247-1.397h-.002zm-5.572 7.941a3.676 3.676 0 113.67-3.676 3.654 3.654 0 01-3.67 3.676zm3.815-6.617a.902.902 0 01-.8-1.219.856.856 0 011.134-.479.856.856 0 01.524.815.9.9 0 01-.858.883zM13.05.053a12.5 12.5 0 1012.445 12.5A12.467 12.467 0 0013.05.054zm7.102 15.442a5.124 5.124 0 01-.331 1.765 3.602 3.602 0 01-2.09 2.059 3.763 3.763 0 01-1.735.367c-.763 0-1.006.073-2.946.073-1.94 0-2.185-.073-2.947-.073a3.763 3.763 0 01-1.735-.367 3.05 3.05 0 01-1.266-.81 3.886 3.886 0 01-.824-1.25 5.12 5.12 0 01-.332-1.764c-.035-.735-.044-.956-.044-2.941 0-1.986.009-2.206.044-2.941a5.138 5.138 0 01.331-1.765c.192-.467.472-.89.825-1.25a3.05 3.05 0 011.266-.809A3.763 3.763 0 0110.1 5.42c.763 0 1.006-.073 2.947-.073 1.942 0 2.184.073 2.947.073.6-.017 1.194.109 1.734.368.483.16.918.438 1.267.81.353.359.633.782.824 1.249.213.564.326 1.161.331 1.765.036.735.044.956.044 2.94 0 1.986-.008 2.207-.044 2.942z" fill="#D4AF5E"/></svg>