<svg width="21" height="16" fill="none" xmlns="http://www.w3.org/2000/svg"><path d="M20.361 1.029a.803.803 0 00-.018-.122.81.81 0 00-.03-.12c-.005-.013-.004-.026-.01-.038-.01-.025-.027-.044-.04-.068a.82.82 0 00-.065-.108.762.762 0 00-.08-.089.854.854 0 00-.09-.08.822.822 0 00-.108-.066c-.023-.012-.042-.03-.067-.04-.013-.005-.026-.005-.038-.01a.78.78 0 00-.12-.03c-.04-.008-.081-.017-.123-.019-.013 0-.025-.005-.038-.005H1.2c-.014 0-.026.006-.04.006a.81.81 0 00-.12.02.61.61 0 00-.121.029C.906.293.893.293.88.298.857.308.837.326.814.338a.818.818 0 00-.109.066.773.773 0 00-.089.08.858.858 0 00-.08.089A.818.818 0 00.47.68C.458.705.44.724.43.75.424.761.424.774.42.786.407.826.399.866.39.907.383.948.375.987.373 1.03c0 .013-.006.025-.006.039V14.4c0 .055.006.11.016.163.005.025.015.048.022.072.008.028.015.056.026.084.012.028.027.053.042.08.012.021.02.043.035.063.06.092.14.17.23.231.02.014.043.024.065.035.026.014.051.03.08.042.027.011.055.018.084.026.024.007.046.017.071.022.053.01.108.015.163.015h18.333a.819.819 0 00.163-.016c.025-.005.048-.014.071-.021.029-.008.058-.015.085-.026.027-.012.053-.027.08-.042.02-.012.043-.021.064-.035a.84.84 0 00.23-.23c.014-.021.023-.043.035-.065.015-.026.03-.051.042-.08.012-.027.018-.055.027-.084.007-.024.016-.046.02-.071a.93.93 0 00.016-.163V1.068c0-.014-.005-.026-.006-.039zm-2.84.872l-6.317 6.318a1.185 1.185 0 01-1.673 0L3.213 1.901h14.309zM2.035 3.08L6.69 7.734l-4.655 4.655V3.08zm1.178 10.488l4.655-4.655.485.485a2.854 2.854 0 004.03 0l.485-.485 4.655 4.655H3.212zm15.489-1.179l-4.655-4.655L18.7 3.08v9.31z" fill="#D4AF5E"/></svg>