<svg width="20" height="15" fill="none" xmlns="http://www.w3.org/2000/svg"><path d="M19.994.795a.803.803 0 00-.018-.122c-.008-.041-.016-.082-.03-.12-.005-.013-.004-.026-.01-.038-.01-.025-.027-.045-.04-.068a.809.809 0 00-.065-.109.762.762 0 00-.08-.088.854.854 0 00-.09-.08.822.822 0 00-.108-.066c-.023-.013-.043-.03-.068-.04-.012-.006-.025-.006-.037-.01a.78.78 0 00-.12-.03.716.716 0 00-.123-.019c-.013 0-.025-.005-.038-.005H.833C.82 0 .808.005.794.006a.81.81 0 00-.122.018c-.04.009-.08.016-.12.03C.539.06.526.058.514.064.49.073.47.09.447.103a.818.818 0 00-.11.065.773.773 0 00-.088.08.858.858 0 00-.08.09.818.818 0 00-.066.108C.091.47.073.49.063.515.058.527.058.54.053.552c-.013.04-.02.08-.03.12C.017.715.009.754.006.796.005.808 0 .82 0 .833v13.334a.9.9 0 00.016.163c.005.025.014.047.021.071.009.029.015.057.027.084.011.028.027.054.042.08.011.022.02.044.034.064.061.091.14.17.231.231.02.014.043.023.065.035.026.014.051.03.079.042.027.01.056.018.085.026.023.007.046.016.07.021A.9.9 0 00.833 15h18.334a.9.9 0 00.163-.016c.025-.005.048-.014.071-.021.029-.009.057-.015.085-.027.027-.011.053-.027.079-.041.022-.012.044-.022.065-.035a.84.84 0 00.23-.231c.014-.02.023-.043.035-.064.015-.026.03-.052.042-.08.011-.027.018-.056.026-.084.007-.024.017-.047.022-.071a.93.93 0 00.015-.163V.833c0-.013-.005-.025-.006-.038zm-2.84.872l-6.317 6.318c-.462.46-1.212.46-1.674 0L2.845 1.667h14.31zM1.668 2.845L6.322 7.5l-4.655 4.655v-9.31zm1.178 10.488L7.5 8.678l.485.485a2.854 2.854 0 004.03 0l.485-.485 4.655 4.655H2.845zm15.488-1.178L13.678 7.5l4.655-4.655v9.31z" fill="#fff"/></svg>