<svg width="22" height="22" fill="none" xmlns="http://www.w3.org/2000/svg"><path fill-rule="evenodd" clip-rule="evenodd" d="M4.424.665C2.049.665.145 2.723.145 5.218V17.04c0 2.495 1.904 4.554 4.279 4.554h7.932c1.52 0 2.733-1.308 2.733-2.884V5.19c0-.746.539-1.305 1.146-1.305.607 0 1.146.56 1.146 1.306v9.126c0 1.641 1.262 3.003 2.844 3.003a.849.849 0 000-1.697c-.607 0-1.147-.56-1.147-1.306V5.19c0-1.642-1.261-3.003-2.843-3.003s-2.843 1.36-2.843 3.003v13.52c0 .68-.49 1.187-1.036 1.187h-2.85c.007-.066.01-.133.01-.201v-3.588c0-1.036-.805-1.898-1.82-1.898H5.62c-.064 0-.187-.08-.187-.27V8.32c0-.192.123-.271.187-.271h2.076c1.015 0 1.82-.863 1.82-1.898V2.563c0-1.035-.805-1.898-1.82-1.898H4.424zM1.842 5.218c0-1.597 1.18-2.856 2.582-2.856h1.018v3.999c-.965.094-1.706.947-1.706 1.958v5.62c0 1.012.74 1.865 1.706 1.959v3.999H4.424c-1.402 0-2.582-1.26-2.582-2.857V5.218zm5.297 1.134v-3.99h.557c.016 0 .043.008.071.042.029.034.052.09.052.16V6.15a.25.25 0 01-.052.16c-.028.034-.055.041-.071.041h-.557zm0 13.545v-3.99h.557c.016 0 .043.007.071.041a.25.25 0 01.052.16v3.588a.25.25 0 01-.052.159c-.028.034-.055.042-.071.042h-.557z" fill="#fff"/></svg>