<svg width="26" height="26" fill="none" xmlns="http://www.w3.org/2000/svg"><path fill-rule="evenodd" clip-rule="evenodd" d="M12.633 10.409a2.145 2.145 0 10-2.167-2.146 2.162 2.162 0 002.167 2.146zM12.62.054a12.5 12.5 0 1012.5 12.5 12.515 12.515 0 00-12.5-12.5h.001zm.018 3.772a4.507 4.507 0 014.376 4.512 4.398 4.398 0 11-4.376-4.512zm4.93 10.577a5.077 5.077 0 01-1.906 1.257c-.703.224-1.428.373-2.163.444.072.103.15.201.233.295a112.09 112.09 0 013.006 3.033.904.904 0 01.222 1.11 1.27 1.27 0 01-1.11.74.934.934 0 01-.703-.37c-.756-.74-1.526-1.48-2.267-2.294-.216-.221-.318-.148-.51 0-.76.814-1.532 1.554-2.31 2.367a.986.986 0 01-1.169.148 1.052 1.052 0 01-.682-1.035c.027-.284.16-.548.37-.74.99-1.035 1.979-1.997 2.967-2.959.082-.092.157-.19.222-.295a6.792 6.792 0 01-3.605-1.257c-.13-.074-.263-.223-.38-.297a1.05 1.05 0 01-.142-1.479.986.986 0 011.364-.295.54.54 0 01.296.148 5.873 5.873 0 006.552.073 1.1 1.1 0 01.638-.296.918.918 0 011.147.444.947.947 0 01-.07 1.258z" fill="#D4AF5E"/></svg>