<svg width="21" height="22" fill="none" xmlns="http://www.w3.org/2000/svg"><path d="M13.479.777c-3.99 0-7.236 3.246-7.236 7.235 0 1.136.27 2.207.74 3.165l-1.766 1.766h-.001L.854 17.306a1.945 1.945 0 000 2.747l.585.585c.379.379.876.568 1.374.568.497 0 .994-.189 1.373-.568l6.128-6.128a7.174 7.174 0 003.165.739c3.99 0 7.235-3.246 7.235-7.236A7.242 7.242 0 0013.479.778zM2.982 19.433a.24.24 0 01-.34 0l-.584-.585a.24.24 0 010-.339l3.76-3.76.924.924-3.76 3.76zm4.964-4.963l-.924-.925.903-.903c.28.335.589.644.924.924l-.903.903zm5.533-.925a5.54 5.54 0 01-5.533-5.533 5.54 5.54 0 015.533-5.533 5.54 5.54 0 015.533 5.533 5.54 5.54 0 01-5.533 5.533z" fill="#fff"/></svg>