<svg width="26" height="26" fill="none" xmlns="http://www.w3.org/2000/svg"><path fill-rule="evenodd" clip-rule="evenodd" d="M25.375 12.554c0 6.903-5.596 12.5-12.5 12.5s-12.5-5.597-12.5-12.5c0-6.904 5.596-12.5 12.5-12.5s12.5 5.596 12.5 12.5zm-11.991 5.482h-.981s-2.165.13-4.071-1.854c-2.08-2.165-3.915-6.46-3.915-6.46s-.106-.282.009-.418c.13-.154.481-.163.481-.163l2.345-.016s.222.037.38.153c.13.096.203.275.203.275s.38.959.881 1.826c.98 1.693 1.436 2.064 1.769 1.882.485-.264.34-2.393.34-2.393s.008-.773-.245-1.117c-.196-.267-.565-.344-.728-.366-.132-.018.085-.324.365-.462.422-.207 1.168-.218 2.048-.21.686.008.884.05 1.152.115.623.15.603.632.561 1.671-.012.31-.027.67-.027 1.087 0 .094-.003.193-.005.296-.015.532-.031 1.141.319 1.368.18.116.619.017 1.718-1.849.52-.884.911-1.924.911-1.924s.086-.186.218-.265c.136-.081.319-.056.319-.056l2.468-.016s.741-.088.861.246c.126.352-.277 1.172-1.285 2.516-.958 1.276-1.423 1.746-1.379 2.161.032.303.334.577.914 1.115 1.215 1.128 1.538 1.72 1.615 1.86l.015.026c.543.901-.603.972-.603.972l-2.192.03s-.471.094-1.091-.332c-.325-.222-.641-.586-.943-.932-.462-.53-.889-1.018-1.253-.903-.61.194-.592 1.51-.592 1.51s.005.282-.134.431c-.152.163-.448.196-.448.196z" fill="#D4AF5E"/></svg>