<svg width="26" height="26" fill="none" xmlns="http://www.w3.org/2000/svg"><path d="M12.533 7.343c0-.072.038-.13.112-.176a.564.564 0 01.29-.066c.13 0 .235.022.314.066.08.046.119.104.119.176v1.802a.24.24 0 01-.117.21.577.577 0 01-.315.076.502.502 0 01-.299-.075.244.244 0 01-.104-.211V7.343zm-2.419 6.554h-.789v3.267h-.763v-3.267h-.789v-.557h2.341v.557zm2.356 3.313h-.824v-.34c-.153.125-.31.221-.475.286a1.256 1.256 0 01-.478.099c-.19 0-.332-.046-.43-.14-.095-.09-.144-.228-.144-.412v-2.58h.823v2.367c0 .074.017.125.05.158.036.033.093.048.17.048.059 0 .137-.02.23-.065a1.08 1.08 0 00.255-.165v-2.343h.822v3.086z" fill="#D4AF5E"/><path fill-rule="evenodd" clip-rule="evenodd" d="M15.583 16.622c0 .202-.064.356-.191.465-.126.108-.312.162-.552.162-.16 0-.302-.02-.426-.062a1.07 1.07 0 01-.347-.194v.219h-.821V13.34h.82v1.248c.112-.086.228-.153.35-.199a1.07 1.07 0 01.374-.068c.257 0 .453.06.589.181.136.122.204.301.204.535v1.585zm-1.176-1.848l-.173.028-.168.087v1.78a.785.785 0 00.193.101l.196.03c.1 0 .173-.02.22-.06.046-.04.07-.106.07-.196v-1.476c0-.098-.027-.17-.085-.22a.385.385 0 00-.253-.074zm4.306.976h-1.516v.559c0 .155.025.263.078.324.053.06.143.09.268.09.133 0 .224-.026.277-.077.052-.051.08-.163.08-.338v-.134h.815v.151c0 .303-.098.531-.3.685-.198.153-.495.23-.89.23-.355 0-.635-.081-.839-.244-.203-.16-.306-.386-.306-.67v-1.33c0-.255.113-.466.338-.628.224-.16.511-.241.867-.241.362 0 .641.075.837.224.194.15.291.365.291.644v.756zm-1.398-1.025c.056-.054.146-.08.272-.08.12 0 .21.026.264.08.055.053.084.142.084.266v.299h-.701v-.299c0-.124.027-.213.081-.266z" fill="#D4AF5E"/><path fill-rule="evenodd" clip-rule="evenodd" d="M13.248.054c6.904 0 12.5 5.597 12.5 12.5s-5.596 12.5-12.5 12.5-12.5-5.597-12.5-12.5 5.596-12.5 12.5-12.5zm-.302 10.157c.396 0 .705-.126.932-.305.225-.18.337-.424.337-.738V7.273a.833.833 0 00-.344-.687c-.23-.177-.525-.266-.886-.266-.394 0-.71.084-.943.252a.794.794 0 00-.352.679v1.901c0 .313.114.56.342.745.229.185.534.314.914.314zm2.616-.002c.134 0 .27-.074.411-.15l.016-.01c.149-.081.29-.2.426-.354v.42h.739v-3.8h-.739V9.2c-.068.082-.145.15-.227.204a.42.42 0 01-.206.08c-.07 0-.12-.02-.15-.06-.032-.04-.049-.105-.049-.194V6.316h-.736V9.49c0 .227.044.397.13.51a.484.484 0 00.385.208zm2.147 1.57H8.787c-1.419 0-2.568 1.106-2.568 2.468v2.086c0 1.363 1.15 2.468 2.568 2.468h8.922c1.418 0 2.568-1.105 2.568-2.468v-2.086c0-1.362-1.15-2.467-2.568-2.467zm-8.037-1.56h.932V7.95l1.086-3.204h-.948l-.577 2.19h-.06l-.604-2.19h-.94l1.111 3.306v2.169z" fill="#D4AF5E"/></svg>