<svg width="80" height="80" xmlns="http://www.w3.org/2000/svg"><path d="M49.027 15.44a5.368 5.368 0 01-2.396 4.475l-1.697 1.132a13.3 13.3 0 00.507-3.562c0-4.497-2.526-8.233-3.587-9.604V1.825h-3.586v6.056c-1.062 1.371-3.587 5.107-3.587 9.604 0 1.259.198 2.458.507 3.562l-1.698-1.131a5.37 5.37 0 01-2.395-4.477v-2.854h-3.587v45.892a8.948 8.948 0 003.993 7.46l6.727 4.485-.011 6.786 3.586.003.011-6.736 6.807-4.537a8.948 8.948 0 003.993-7.46V12.584h-3.587v2.854zm-10.76 2.045c0-2.304.943-4.42 1.794-5.86.851 1.44 1.793 3.556 1.793 5.86 0 2.304-.942 4.42-1.793 5.86-.851-1.441-1.793-3.556-1.793-5.86zm-7.172 5.127c.294.22-.197-.114 7.172 4.798l-.006 6.445-4.77-3.18a5.37 5.37 0 01-2.396-4.476V22.61zm0 10.759c.294.22-.22-.13 7.162 4.792l-.006 6.445-4.761-3.174a5.37 5.37 0 01-2.396-4.476v-3.587zm7.147 21.99l-4.752-3.167a5.37 5.37 0 01-2.396-4.476V44.13c.295.221-.197-.114 7.153 4.786l-.005 6.445zm-4.752 7.593a5.37 5.37 0 01-2.395-4.477V54.89c.294.22-.195-.113 7.142 4.78l-.005 6.444-4.742-3.16zm15.537-4.477a5.369 5.369 0 01-2.395 4.476l-4.814 3.21.006-6.454c7.436-4.957 6.907-4.598 7.203-4.82v3.588zm0-10.76a5.369 5.369 0 01-2.395 4.477l-4.804 3.202.006-6.453c7.435-4.957 6.897-4.591 7.193-4.813v3.588zm0-10.759a5.37 5.37 0 01-2.396 4.477l-4.793 3.195.005-6.453c7.422-4.947 6.888-4.584 7.184-4.806v3.587zm0-10.76a5.369 5.369 0 01-2.396 4.477l-4.784 3.19.006-6.454c7.396-4.93 6.877-4.578 7.174-4.8v3.588z"/></svg>