<svg width="62" height="60" fill="none" xmlns="http://www.w3.org/2000/svg"><path d="M61.659 31.08c0-11.455-9.32-20.776-20.777-20.776H6.885A2.888 2.888 0 014.001 7.42a2.888 2.888 0 012.884-2.885h27.62V.947H6.884A6.48 6.48 0 00.412 7.42c0 2.998 2.05 5.525 4.82 6.258.032.716.087 1.417.164 2.102H.412v3.589h5.62a22.08 22.08 0 001.307 3.781c1.198 2.635 2.894 4.864 5.042 6.624 3.728 3.056 7.754 3.857 9.312 4.059.323.042.522.055.558.058l.056.003h18.575c3.963 0 7.187 3.224 7.187 7.187 0 3.033-1.888 5.63-4.55 6.685-.644-3.814-3.968-6.728-7.962-6.728h-8.73v2.743c0 2.536 1.175 4.8 3.008 6.282a8.064 8.064 0 00-3.008 6.283v2.743h8.73c4.168 0 7.608-3.174 8.032-7.231h.044v-.183c10.16-1.35 18.026-10.07 18.026-20.594zM30.495 44.628h5.062a4.495 4.495 0 014.408 3.642h-5.062a4.496 4.496 0 01-4.408-3.642zM35.557 55.5h-5.062a4.496 4.496 0 014.408-3.642h5.062a4.495 4.495 0 01-4.408 3.642zm3.319-25.195H28.23c2.674-5.166 2.437-9.726 1.652-12.827a18.227 18.227 0 00-1.326-3.585h10.66c.546.814 1.451 2.38 1.979 4.466 1.011 3.997.23 8.012-2.32 11.946zm-16.721-.031c-.977-.127-4.403-.737-7.499-3.275-3.54-2.901-5.493-7.304-5.82-13.106h15.588c.56.835 1.494 2.456 2.015 4.612.955 3.95.162 7.916-2.355 11.8h-1.65a6.836 6.836 0 01-.28-.031zm20.766.226c2.78-5.247 2.547-9.882 1.753-13.022a18.193 18.193 0 00-1.233-3.394c4.488.673 8.413 3.087 11.065 6.53.08.77.175 2.598-.38 4.67-.899 3.343-3.056 5.85-6.418 7.465a10.74 10.74 0 00-4.787-2.25zm7.986 14.535c.485-1.225.751-2.558.751-3.954 0-2.024-.561-3.92-1.536-5.54 4.535-2.477 6.507-6.073 7.356-8.932.385 1.426.592 2.925.592 4.472 0 5.74-2.828 10.83-7.163 13.954z" fill="#000"/><path d="M18.714 16.308h3.588v3.589h-3.588v-3.589z" fill="#000"/></svg>