<svg width="30" height="62" fill="none" xmlns="http://www.w3.org/2000/svg"><path d="M21.017 7.943V.18H9.055v7.764A14.383 14.383 0 00.682 20.995V55.36c0 1.624.667 3.21 1.832 4.353 1.155 1.133 2.668 1.745 4.264 1.71a5.958 5.958 0 004.065-1.72 5.962 5.962 0 004.193 1.72 5.962 5.962 0 004.193-1.72 5.957 5.957 0 004.065 1.72 5.905 5.905 0 004.265-1.71 6.137 6.137 0 001.832-4.353V20.995c0-5.64-3.316-10.733-8.374-13.052zM17.43 3.767v3.589h-4.785V3.767h4.785zm-6.254 7.178h7.723a10.785 10.785 0 016.904 10.05v.715H4.27v-.715c0-4.458 2.763-8.459 6.905-10.05zM4.27 36.065v-3.588h21.532v3.588H4.27zm21.532 3.589v3.588H4.27v-3.588h21.532zM4.27 28.888v-3.589h21.532v3.589H4.27zm20.776 28.264a2.332 2.332 0 01-1.64.684h-.044a2.404 2.404 0 01-2.345-2.392H17.43a2.395 2.395 0 01-2.393 2.392 2.395 2.395 0 01-2.392-2.392h-3.59a2.404 2.404 0 01-2.345 2.392h-.044a2.331 2.331 0 01-1.639-.684 2.526 2.526 0 01-.757-1.791v-8.53h21.532v8.53c0 .666-.276 1.32-.756 1.79z" fill="#000"/></svg>