<svg width="56" height="62" fill="none" xmlns="http://www.w3.org/2000/svg"><path d="M55.006 7.929C53.625 6.9 50.63 4.92 46.096 3.217 40.583 1.146 34.507.096 28.036.096c-6.472 0-12.548 1.05-18.06 3.121-4.535 1.704-7.53 3.684-8.91 4.712l-.723.538v3.475l1.98-.207c2.136-.223 9.546-.933 19.208-1.175v10.21h1.503v40.573h10.003V20.77h1.503V10.56c9.662.242 17.073.952 19.208 1.175l1.98.207V8.467l-.722-.538zM29.448 57.753h-2.825V20.77h2.825v36.984zm3.33-50.82L30.951 6.9v10.28h-5.83V6.9l-1.828.033c-5.671.102-10.626.368-14.438.638 4.27-1.929 10.695-3.887 19.18-3.887 8.486 0 14.912 1.958 19.181 3.887-3.812-.27-8.767-.536-14.438-.638z" fill="#000"/></svg>