<svg width="53" height="53" fill="none" xmlns="http://www.w3.org/2000/svg"><path d="M32.264 10.461a3.554 3.554 0 01-1.586 2.964l-1.124.749a8.776 8.776 0 00.336-2.358c0-2.977-1.672-5.45-2.375-6.358V1.449h-2.374v4.009c-.702.908-2.374 3.38-2.374 6.358 0 .833.131 1.627.336 2.358l-1.124-.75a3.555 3.555 0 01-1.586-2.962v-1.89h-2.374v30.38c0 1.989.988 3.835 2.643 4.938l4.453 2.969-.007 4.492 2.374.002.007-4.459 4.506-3.004a5.924 5.924 0 002.643-4.938V8.572h-2.374v1.89zm-7.123 1.355c0-1.526.624-2.926 1.187-3.88.564.955 1.188 2.355 1.188 3.88s-.624 2.925-1.188 3.879c-.563-.954-1.187-2.354-1.187-3.88zm-4.748 3.393c.195.147-.13-.075 4.748 3.177l-.004 4.267-3.158-2.106a3.554 3.554 0 01-1.586-2.963V15.21zm0 7.123c.195.146-.146-.086 4.741 3.172l-.003 4.267-3.152-2.101a3.554 3.554 0 01-1.586-2.964v-2.374zm4.731 14.557l-3.145-2.097a3.554 3.554 0 01-1.586-2.963v-2.375c.195.147-.13-.075 4.735 3.169l-.004 4.266zm-3.145 5.026a3.554 3.554 0 01-1.586-2.963v-2.375c.195.146-.13-.075 4.729 3.164l-.004 4.266-3.14-2.092zm10.285-2.963a3.554 3.554 0 01-1.586 2.963l-3.186 2.124.004-4.272c4.922-3.281 4.572-3.043 4.768-3.19v2.375zm0-7.123a3.554 3.554 0 01-1.586 2.963l-3.18 2.12.004-4.271c4.922-3.282 4.566-3.04 4.762-3.187v2.375zm0-7.122a3.554 3.554 0 01-1.586 2.963l-3.173 2.115.004-4.271c4.912-3.276 4.559-3.035 4.755-3.182v2.375zm0-7.123a3.554 3.554 0 01-1.586 2.963l-3.167 2.111.004-4.271c4.896-3.264 4.553-3.03 4.749-3.178v2.375z" fill="#000"/></svg>