<svg width="41" height="40" fill="none" xmlns="http://www.w3.org/2000/svg"><path d="M40.665 20.92c0-7.584-6.17-13.754-13.754-13.754H4.407a1.912 1.912 0 01-1.91-1.91c0-1.052.857-1.909 1.91-1.909H22.69V.972H4.407A4.29 4.29 0 00.122 5.257a4.292 4.292 0 003.19 4.142c.022.475.058.938.109 1.392H.12v2.375h3.72c.223.888.511 1.724.866 2.504.793 1.744 1.916 3.22 3.338 4.385a12.559 12.559 0 006.164 2.686c.214.028.345.037.37.039l.036.002H26.91a4.763 4.763 0 014.758 4.758 4.765 4.765 0 01-3.012 4.425 5.354 5.354 0 00-5.27-4.454h-5.78v1.816c0 1.678.778 3.178 1.992 4.159a5.338 5.338 0 00-1.992 4.158v1.816h5.78c2.758 0 5.036-2.1 5.317-4.787h.029v-.12c6.726-.895 11.932-6.667 11.932-13.633zm-20.63 8.967h3.352a2.976 2.976 0 012.918 2.41h-3.351a2.976 2.976 0 01-2.918-2.41zm3.352 7.197h-3.351a2.976 2.976 0 012.918-2.41h3.35a2.976 2.976 0 01-2.917 2.41zm2.197-16.678h-7.047c1.77-3.42 1.612-6.438 1.093-8.49a12.069 12.069 0 00-.878-2.374h7.057a9.68 9.68 0 011.31 2.956c.669 2.646.152 5.304-1.535 7.908zm-11.07-.02c-.646-.084-2.914-.488-4.963-2.168-2.343-1.92-3.637-4.836-3.854-8.676h10.32c.37.553.989 1.626 1.334 3.053.632 2.615.107 5.24-1.56 7.811H14.7a4.6 4.6 0 01-.184-.02zm13.747.149c1.84-3.473 1.686-6.541 1.16-8.62a12.042 12.042 0 00-.816-2.247 11.386 11.386 0 017.325 4.323c.053.51.116 1.72-.252 3.091-.594 2.213-2.022 3.873-4.248 4.942a7.11 7.11 0 00-3.169-1.49zm5.287 9.622c.32-.81.497-1.694.497-2.617a7.09 7.09 0 00-1.017-3.667c3.002-1.64 4.308-4.02 4.87-5.914a11.37 11.37 0 01-4.35 12.198z" fill="#000"/><path d="M12.237 11.14h2.376v2.375h-2.376V11.14z" fill="#000"/></svg>