<svg width="20" height="41" fill="none" xmlns="http://www.w3.org/2000/svg"><path d="M14.28 5.244V.104H6.362v5.14a9.521 9.521 0 00-5.543 8.64v22.75a4.06 4.06 0 001.213 2.881 3.884 3.884 0 002.823 1.132 3.944 3.944 0 002.69-1.138 3.947 3.947 0 002.776 1.139c1.08 0 2.06-.435 2.776-1.139a3.944 3.944 0 002.69 1.138 3.909 3.909 0 002.824-1.132 4.063 4.063 0 001.212-2.881v-22.75a9.52 9.52 0 00-5.543-8.64zM11.905 2.48v2.376H8.737V2.48h3.168zm-4.14 4.751h5.112a7.139 7.139 0 014.57 6.653v.474H3.195v-.474c0-2.95 1.83-5.6 4.57-6.653zm-4.57 16.63v-2.376h14.253v2.375H3.194zm14.253 2.375v2.375H3.194v-2.375h14.254zM3.194 19.109v-2.375h14.254v2.375H3.194zm13.753 18.71a1.544 1.544 0 01-1.114.453 1.591 1.591 0 01-1.553-1.584h-2.375a1.585 1.585 0 01-3.168 0H6.362a1.591 1.591 0 01-1.582 1.584c-.402 0-.786-.16-1.085-.453a1.672 1.672 0 01-.5-1.185v-5.647h14.253v5.647c0 .44-.183.873-.5 1.185z" fill="#000"/></svg>