<svg width="37" height="41" fill="none" xmlns="http://www.w3.org/2000/svg"><path d="M36.522 5.29c-.915-.68-2.897-1.991-5.899-3.12C26.974.8 22.952.105 18.668.105S10.362.8 6.713 2.171C3.71 3.299 1.729 4.609.814 5.29l-.478.356v2.3l1.311-.137c1.414-.147 6.32-.617 12.715-.777v6.758h.995v26.858h6.622V13.79h.995V7.033c6.396.16 11.301.63 12.715.777l1.31.137v-2.3l-.477-.356zM19.603 38.272h-1.87V13.79h1.87v24.482zM21.807 4.63l-1.209-.021v6.805h-3.86V4.609l-1.21.021c-3.754.068-7.034.244-9.557.423C8.797 3.776 13.05 2.48 18.668 2.48c5.617 0 9.87 1.296 12.697 2.573a182.738 182.738 0 00-9.558-.423z" fill="#000"/></svg>