<svg version="1.1" id="bono" xmlns="http://www.w3.org/2000/svg" x="0" y="0" viewBox="0 0 74.84 20.17" xml:space="preserve"><style>.st0{fill:#272727}</style><path class="st0" d="M0 1.2h4.87c2.21 0 3.61.2 4.84.95 1.38.83 2.13 2.08 2.13 3.71 0 2.08-1.26 3.31-2.76 3.84v.05c2.13.5 3.49 1.91 3.49 4.24 0 1.73-.75 3.24-2.08 4.17-1.28.9-3.04 1.21-5.67 1.21H0V1.2zm5.97 7.93c1.83 0 3.49-.85 3.49-2.84 0-1.13-.53-1.86-1.28-2.31-.85-.5-1.83-.63-3.64-.63H2.38v5.77h3.59zm-1 8.08c2.06 0 3.21-.2 4.04-.78.58-.4 1.18-1.16 1.18-2.38 0-2.01-1.58-3.09-4.29-3.09H2.38v6.25h2.59z"/><path class="st0" d="M24.12.92c5.27 0 9.24 4.09 9.24 9.36s-3.97 9.36-9.24 9.36-9.24-4.09-9.24-9.36c.01-5.27 3.97-9.36 9.24-9.36zm0 16.52c3.97 0 6.85-3.16 6.85-7.15s-2.89-7.15-6.85-7.15-6.85 3.16-6.85 7.15c0 3.98 2.89 7.15 6.85 7.15z" tabindex="687771"/><path class="st0" d="M36.4 19.37V1.2h2.26l7.61 10.09c1.05 1.38 2.11 2.81 3.14 4.24l.05-.02c-.02-1.58-.05-3.41-.05-5.17V1.2h2.31v18.17h-2.26L41.85 9.28c-1.05-1.38-2.11-2.81-3.14-4.24l-.05.02c.03 1.58.05 3.41.05 5.17v9.14H36.4zM63.99.92c5.27 0 9.24 4.09 9.24 9.36s-3.97 9.36-9.24 9.36-9.24-4.09-9.24-9.36S58.72.92 63.99.92zm0 16.52c3.97 0 6.85-3.16 6.85-7.15s-2.89-7.15-6.85-7.15-6.85 3.16-6.85 7.15c0 3.98 2.88 7.15 6.85 7.15z"/><path transform="rotate(45.001 64.755 10.083)" class="st0" d="M63.6-3.02h2.3V23.2h-2.3z"/></svg>