<svg width="20" height="16" fill="none" xmlns="http://www.w3.org/2000/svg"><path d="M19.994.945a.803.803 0 00-.018-.122c-.008-.04-.016-.081-.03-.12-.005-.013-.004-.026-.01-.038-.01-.025-.027-.044-.04-.068a.809.809 0 00-.065-.108.762.762 0 00-.08-.089.855.855 0 00-.09-.08.822.822 0 00-.108-.066c-.023-.012-.043-.03-.068-.04-.012-.005-.025-.005-.037-.01a.78.78 0 00-.12-.03c-.04-.008-.081-.017-.123-.019-.013 0-.025-.005-.038-.005H.833C.82.15.808.156.794.156a.81.81 0 00-.122.019c-.04.008-.08.015-.12.03C.539.209.526.209.514.214.49.224.47.242.447.254a.818.818 0 00-.11.066A.773.773 0 00.25.4a.858.858 0 00-.08.089.818.818 0 00-.066.108C.091.621.073.64.063.665.058.677.058.69.053.702c-.013.04-.02.08-.03.121C.017.864.009.903.006.945.005.958 0 .97 0 .984v13.333c0 .055.006.11.016.163.005.025.014.048.021.072.009.028.015.056.027.084.011.028.027.053.042.08.011.021.02.043.034.064.061.09.14.17.231.23.02.014.043.024.065.035.026.015.051.03.079.042.027.011.056.018.085.026.023.007.046.017.07.022.054.01.109.015.163.015h18.334a.819.819 0 00.163-.016c.025-.005.048-.014.071-.021.029-.008.057-.015.085-.026a.856.856 0 00.079-.042c.022-.012.044-.021.065-.035a.84.84 0 00.23-.23c.014-.021.023-.043.035-.065.015-.026.03-.051.042-.08.011-.027.018-.055.026-.084.007-.024.017-.046.022-.071a.93.93 0 00.015-.163V.984c0-.014-.005-.026-.006-.039zm-2.84.872l-6.317 6.318a1.186 1.186 0 01-1.674 0L2.845 1.817h14.31zM1.668 2.996L6.322 7.65l-4.655 4.655v-9.31zm1.178 10.488L7.5 8.829l.485.485a2.854 2.854 0 004.03 0l.485-.485 4.655 4.655H2.845zm15.488-1.179L13.678 7.65l4.655-4.654v9.31z" fill="#D4AF5E"/></svg>