<svg width="14" height="21" fill="none" xmlns="http://www.w3.org/2000/svg"><path d="M11.167.15H2.833A2.086 2.086 0 00.75 2.234v15.833c0 1.149.935 2.083 2.083 2.083h8.334a2.086 2.086 0 002.083-2.083V2.234A2.086 2.086 0 0011.167.15zm.416 17.917c0 .23-.186.417-.416.417H2.833a.417.417 0 01-.416-.417V4.734h9.166v13.333zm0-15H2.417v-.833c0-.23.186-.417.416-.417h8.334c.23 0 .416.187.416.417v.833z" fill="#D4AF5E"/><path d="M7.417 15.983h-.834a.834.834 0 000 1.667h.834a.834.834 0 000-1.667zM8.84 6.644a.833.833 0 00-1.179 0l-3.75 3.75a.833.833 0 101.178 1.179l3.75-3.75a.833.833 0 000-1.179zm.416 2.917a.833.833 0 00-1.178 0L6.41 11.228a.833.833 0 101.178 1.178l1.667-1.666a.833.833 0 000-1.179z" fill="#D4AF5E"/></svg>